HIERARCHY
ROOT SpineBase
{
  OFFSET 0.000000 0.000000 0.000000
  CHANNELS 6 Xposition Yposition Zposition Zrotation Xrotation Yrotation
  JOINT SpineMid
  {
    OFFSET 0.000000 21.794001 0.000000
    CHANNELS 3 Zrotation Xrotation Yrotation
    JOINT SpineShoulder
    {
      OFFSET -0.007199 16.357191 -0.703159
      CHANNELS 3 Zrotation Xrotation Yrotation
      JOINT Neck
      {
        OFFSET -0.052345 5.440096 -0.475134
        CHANNELS 3 Zrotation Xrotation Yrotation
        JOINT Head
        {
          OFFSET 6.518278 5.580671 -2.650352
          CHANNELS 3 Zrotation Xrotation Yrotation
          End Site
          {
            OFFSET 0 0 0
          }
        }
      }
      JOINT ShoulderLeft
      {
        OFFSET -11.275482 -5.606941 5.992573
        CHANNELS 3 Zrotation Xrotation Yrotation
        JOINT ElbowLeft
        {
          OFFSET 9.613233 -14.195339 -19.328076
          CHANNELS 3 Zrotation Xrotation Yrotation
          JOINT WristLeft
          {
            OFFSET 12.570538 -17.306897 -7.573905
            CHANNELS 3 Zrotation Xrotation Yrotation
            JOINT HandLeft
            {
              OFFSET 0.888680 -2.734578 1.068603
              CHANNELS 3 Zrotation Xrotation Yrotation
              JOINT HandTipLeft
              {
                OFFSET -0.834135 -3.349656 3.115225
                CHANNELS 3 Zrotation Xrotation Yrotation
                End Site
                {
                  OFFSET 0 0 0
                }
              }
              JOINT ThumbLeft
              {
                OFFSET -2.757651 -2.422176 1.444155
                CHANNELS 3 Zrotation Xrotation Yrotation
                End Site
                {
                  OFFSET 0 0 0
                }
              }
            }
          }
        }
      }
      JOINT ShoulderRight
      {
        OFFSET -0.704902 -0.164523 -10.150832
        CHANNELS 3 Zrotation Xrotation Yrotation
        JOINT ElbowRight
        {
          OFFSET 13.551586 -7.994296 18.024885
          CHANNELS 3 Zrotation Xrotation Yrotation
          JOINT WristRight
          {
            OFFSET 14.504024 -7.027272 17.976632
            CHANNELS 3 Zrotation Xrotation Yrotation
            JOINT HandRight
            {
              OFFSET 2.761066 2.586417 5.366980
              CHANNELS 3 Zrotation Xrotation Yrotation
              JOINT HandTipRight
              {
                OFFSET 4.703815 -2.558537 2.114911
                CHANNELS 3 Zrotation Xrotation Yrotation
                End Site
                {
                  OFFSET 0 0 0
                }
              }
              JOINT ThumbRight
              {
                OFFSET -0.696146 -4.990872 -1.103758
                CHANNELS 3 Zrotation Xrotation Yrotation
                End Site
                {
                  OFFSET 0 0 0
                }
              }
            }
          }
        }
      }
    }
  }
  JOINT HipLeft
  {
    OFFSET -6.834198 -1.496078 -2.680432
    CHANNELS 3 Zrotation Xrotation Yrotation
    JOINT KneeLeft
    {
      OFFSET 27.187232 5.165986 -24.048956
      CHANNELS 3 Zrotation Xrotation Yrotation
      JOINT AnkleLeft
      {
        OFFSET -17.560276 1.669409 11.586361
        CHANNELS 3 Zrotation Xrotation Yrotation
        JOINT FootLeft
        {
          OFFSET -4.586695 -3.920665 5.460591
          CHANNELS 3 Zrotation Xrotation Yrotation
          End Site
          {
            OFFSET 0 0 0
          }
        }
      }
    }
  }
  JOINT HipRight
  {
    OFFSET 4.935423 2.970156 -2.301011
    CHANNELS 3 Zrotation Xrotation Yrotation
    JOINT KneeRight
    {
      OFFSET 16.747966 6.969286 -32.917149
      CHANNELS 3 Zrotation Xrotation Yrotation
      JOINT AnkleRight
      {
        OFFSET -10.556672 -20.322106 -9.492962
        CHANNELS 3 Zrotation Xrotation Yrotation
        JOINT FootRight
        {
          OFFSET -2.007677 1.302351 9.179363
          CHANNELS 3 Zrotation Xrotation Yrotation
          End Site
          {
            OFFSET 0 0 0
          }
        }
      }
    }
  }
}
MOTION
Frames: 9
Frame Time: 0.033333
145.220429 14.655827 367.617124 -1.550109 2.044511 -16.762140 0.244172 -0.074556 16.735134 0.358839 0.052253 -0.003646 1.113499 -3.306960 1.725485 0.000000 0.000000 0.000000 1.878566 -0.150622 0.094047 -2.253804 -5.670407 -2.371587 22.393767 24.622033 11.996069 -14.051589 -6.780996 -9.988219 0.000000 0.000000 0.000000 0.000000 0.000000 0.000000 -50.983279 40.161770 44.306392 108.738686 -79.257994 57.377208 -19.847536 24.524507 12.366371 28.958642 -5.054225 12.744406 0.000000 0.000000 0.000000 0.000000 0.000000 0.000000 3.894864 2.588948 10.965435 39.470631 42.568050 18.157918 -20.453850 17.148363 -159.254962 0.000000 0.000000 0.000000 4.348540 -11.706267 31.690192 49.453470 -58.072615 33.675625 -61.032092 41.370045 -49.584766 0.000000 0.000000 0.000000
145.425072 14.708826 366.906385 -1.633642 2.557389 -16.478479 0.022028 -0.021190 16.446410 0.156076 0.017273 -0.031181 1.268249 -3.382103 1.002527 0.000000 0.000000 0.000000 2.803420 -0.345992 -0.159576 -2.559351 -5.292320 -1.507529 16.096433 9.857297 7.829861 -1.071107 5.901260 1.808094 0.000000 0.000000 0.000000 0.000000 0.000000 0.000000 -51.134570 40.047160 44.352341 114.443091 -78.511463 63.292546 -20.239912 24.854004 11.846861 32.917993 -4.161660 15.437997 0.000000 0.000000 0.000000 0.000000 0.000000 0.000000 2.862659 0.428479 10.039767 39.426621 41.872469 17.556515 -33.100532 29.383144 -153.864230 0.000000 0.000000 0.000000 2.139798 -14.016823 23.476911 49.452851 -58.134255 57.149702 -11.465745 65.670438 -102.843947 0.000000 0.000000 0.000000
145.660936 14.725332 366.413763 -1.482460 2.752173 -16.162719 -0.173627 0.330867 16.136180 0.349123 0.161001 0.002795 1.211709 -3.277532 0.108674 0.000000 0.000000 0.000000 2.434611 -0.615192 0.274007 -3.233005 -6.077591 -1.972209 7.725387 6.713869 4.380820 8.498966 5.379833 8.345452 0.000000 0.000000 0.000000 0.000000 0.000000 0.000000 -51.616513 39.911162 43.720815 119.713234 -77.126168 69.155921 -20.966392 25.375040 11.188389 41.752152 -8.811339 14.490723 0.000000 0.000000 0.000000 0.000000 0.000000 0.000000 2.244619 -0.565856 9.753362 38.613488 40.706056 17.449812 -45.086379 39.121554 -149.572654 0.000000 0.000000 0.000000 -0.464030 -18.687301 17.432635 44.772680 -57.948269 70.258607 60.823642 45.347575 -170.653653 0.000000 0.000000 0.000000
145.980965 14.688436 366.258639 -1.149674 2.482939 -17.567464 -0.541315 0.698610 17.536261 0.377479 0.299209 0.015481 1.080776 -3.610207 0.093444 0.000000 0.000000 0.000000 2.280363 -0.767591 0.411385 -3.622780 -7.223450 -2.750989 -1.743492 2.816324 0.335227 18.008721 9.620872 13.118063 0.000000 0.000000 0.000000 0.000000 0.000000 0.000000 -50.966857 39.668972 42.556544 118.297235 -76.798893 67.913754 -21.224641 25.447621 11.527532 53.260581 -12.527991 16.039334 0.000000 0.000000 0.000000 0.000000 0.000000 0.000000 3.178751 1.574587 11.230770 34.736867 37.981276 18.980685 -52.198174 43.256617 -144.866249 0.000000 0.000000 0.000000 -1.127647 -20.450101 17.597262 32.887177 -60.783794 74.954864 93.269584 0.945947 -169.015983 0.000000 0.000000 0.000000
146.425990 14.656082 366.277999 -0.425518 2.160706 -19.442868 -1.074668 0.937018 19.404049 0.328172 0.603118 0.029737 0.012368 -5.014831 0.793573 0.000000 0.000000 0.000000 1.596601 -2.098386 0.300946 -3.741142 -8.363364 -4.075168 -10.192486 1.218019 -2.389640 19.923702 6.657264 12.335391 0.000000 0.000000 0.000000 0.000000 0.000000 0.000000 -50.353147 39.519353 40.656891 113.227425 -76.450114 62.673922 -20.717687 24.773764 12.354649 52.872188 -16.523924 12.624427 0.000000 0.000000 0.000000 0.000000 0.000000 0.000000 2.570611 2.153825 12.842391 34.055531 37.492662 19.144766 -73.917239 49.509121 -131.790491 0.000000 0.000000 0.000000 0.017660 -18.296186 22.562353 -1.283511 -67.725827 65.966000 144.017848 -30.084969 -124.685788 0.000000 0.000000 0.000000
145.988477 14.639888 367.397396 -1.514278 -0.007503 -20.593191 -0.659620 2.385316 20.584891 0.485676 1.005142 0.034957 -0.413080 -5.452678 1.678262 0.000000 0.000000 0.000000 1.960815 -1.329396 -0.016881 -4.345396 -10.314077 -5.052838 -13.916468 -0.704523 -3.684397 21.961361 11.607736 12.521520 0.000000 0.000000 0.000000 0.000000 0.000000 0.000000 -54.713231 40.579643 45.493930 129.415637 -77.359741 76.151212 -20.508046 24.742640 13.622857 26.210453 -15.198042 -0.471505 0.000000 0.000000 0.000000 0.000000 0.000000 0.000000 3.540249 5.718527 14.552898 34.186143 35.619485 16.557775 -96.906743 52.552604 -119.066620 0.000000 0.000000 0.000000 1.573008 -12.216072 25.868092 -43.677501 -65.708494 43.083187 170.575080 -3.501544 -79.293004 0.000000 0.000000 0.000000
146.095617 14.458152 368.180733 -1.335081 -0.849727 -17.391170 -0.897595 1.968371 17.355323 0.582929 1.174268 0.020151 -1.328844 -5.745372 2.533574 0.000000 0.000000 0.000000 2.326317 -0.156892 -0.093030 -4.765809 -12.134454 -6.248443 -21.924896 5.399767 -1.784242 27.701899 1.750343 13.305803 0.000000 0.000000 0.000000 0.000000 0.000000 0.000000 -53.448663 40.521052 46.018508 118.514963 -79.592191 65.308101 -19.364946 24.085157 13.516834 22.523260 -13.934372 -0.932109 0.000000 0.000000 0.000000 0.000000 0.000000 0.000000 4.366988 7.117283 14.600146 32.856801 31.234878 13.557900 -111.890344 42.903361 -101.457410 0.000000 0.000000 0.000000 1.244145 -8.214327 24.031594 -60.477845 -64.035584 33.233826 172.761460 5.689516 -69.231745 0.000000 0.000000 0.000000
146.238292 14.269452 368.670031 -1.123316 -1.992806 -15.110801 -0.880887 1.141855 15.050391 0.519291 1.622735 -0.005967 1.156001 -0.959458 0.101331 0.000000 0.000000 0.000000 2.435229 1.089570 -0.249734 -4.927705 -13.016759 -6.973077 -32.286656 6.684211 -2.834041 34.999008 1.594853 13.980231 0.000000 0.000000 0.000000 0.000000 0.000000 0.000000 -47.733703 39.802031 42.383315 81.949400 -79.751771 30.643502 -18.318400 23.500220 13.142016 20.364864 -13.647308 -1.510567 0.000000 0.000000 0.000000 0.000000 0.000000 0.000000 4.781410 8.628981 13.981168 29.328646 25.952534 11.219138 -113.946017 39.871341 -97.497540 0.000000 0.000000 0.000000 1.204827 -7.306768 24.715333 -66.407311 -67.559334 30.388542 179.149210 3.663179 -65.414267 0.000000 0.000000 0.000000
146.123016 13.806331 367.595184 -0.931568 -0.739890 -15.633627 -0.574706 1.255134 15.597352 0.344555 1.221744 0.007190 1.802298 -0.291405 -1.275652 0.000000 0.000000 0.000000 2.486076 -0.118661 -1.000680 -4.994987 -13.411084 -6.783940 -30.487769 12.913860 2.978035 29.518790 -5.392194 9.698874 0.000000 0.000000 0.000000 0.000000 0.000000 0.000000 -36.513102 35.242942 32.274190 48.039270 -71.884048 2.695110 -17.486207 22.818101 10.539269 31.249244 -15.498122 3.878735 0.000000 0.000000 0.000000 0.000000 0.000000 0.000000 5.664479 8.818328 12.945792 20.356986 20.724186 16.458098 -104.697070 45.106763 -99.130862 0.000000 0.000000 0.000000 2.812971 -4.992489 29.374350 -74.386372 -78.175409 18.151421 -177.120201 -15.397671 -75.839754 0.000000 0.000000 0.000000
